<svg width="234" height="234" viewBox="0 0 234 234" fill="none" xmlns="http://www.w3.org/2000/svg">
<path d="M145.039 11.2862L122.592 5.27148L103.676 75.8685L86.5979 12.133L64.1504 18.1478L82.6022 87.0092L36.6432 41.0505L20.2107 57.483L70.6219 107.895L7.84282 91.0728L1.82812 113.52L70.4222 131.9C69.6369 128.512 69.2214 124.983 69.2214 121.356C69.2214 95.6872 90.0302 74.8783 115.699 74.8783C141.369 74.8783 162.178 95.6872 162.178 121.356C162.178 124.959 161.767 128.467 160.992 131.834L223.331 148.538L229.345 126.091L160.479 107.638L223.262 90.8154L217.247 68.3685L148.383 86.8203L194.342 40.8618L177.909 24.4294L128.197 74.1415L145.039 11.2862Z" fill="#3458FF"/>
<path d="M160.898 132.08C158.974 140.216 154.911 147.526 149.336 153.382L194.498 198.545L210.93 182.112L160.898 132.08Z" fill="#3458FF"/>
<path d="M148.889 153.865C143.247 159.628 136.117 163.928 128.121 166.145L144.555 227.475L167.002 221.46L148.889 153.865Z" fill="#3458FF"/>
<path d="M127.287 166.358C123.577 167.311 119.688 167.818 115.681 167.818C111.388 167.818 107.231 167.236 103.284 166.146L86.8359 227.533L109.283 233.548L127.287 166.358Z" fill="#3458FF"/>
<path d="M102.506 165.926C94.6317 163.599 87.6283 159.244 82.1013 153.465L36.8281 198.738L53.2606 215.171L102.506 165.926Z" fill="#3458FF"/>
<path d="M81.6982 153.06C76.2659 147.244 72.3091 140.032 70.4256 132.021L7.88281 148.78L13.8975 171.227L81.6982 153.06Z" fill="#3458FF"/>
</svg>
