<svg width="20" height="20" viewBox="0 0 20 20" fill="none" xmlns="http://www.w3.org/2000/svg">
<path d="M19.1654 2.49959C18.3674 3.06249 17.4838 3.49302 16.5487 3.77459C16.0468 3.19752 15.3798 2.7885 14.6379 2.60286C13.896 2.41722 13.1149 2.46392 12.4004 2.73664C11.6859 3.00935 11.0724 3.49493 10.6428 4.12769C10.2133 4.76045 9.98845 5.50987 9.9987 6.27459V7.10792C8.53423 7.1459 7.08309 6.8211 5.77454 6.16246C4.46598 5.50382 3.34063 4.53179 2.4987 3.33292C2.4987 3.33292 -0.834635 10.8329 6.66536 14.1663C4.94914 15.3312 2.90466 15.9154 0.832031 15.8329C8.33203 19.9996 17.4987 15.8329 17.4987 6.24959C17.4979 6.01747 17.4756 5.78592 17.432 5.55792C18.2825 4.71917 18.8827 3.66018 19.1654 2.49959Z" fill="#2C2C2C"/>
</svg>
